<?xml version="1.0" encoding="UTF-8"?>
<!DOCTYPE svg PUBLIC "-//W3C//DTD SVG 1.1//EN" "http://www.w3.org/Graphics/SVG/1.1/DTD/svg11.dtd">
<!-- Creator: CorelDRAW X8 -->
<svg xmlns="http://www.w3.org/2000/svg" xml:space="preserve" width="418.9mm" height="87.9646mm" version="1.1" style="shape-rendering:geometricPrecision; text-rendering:geometricPrecision; image-rendering:optimizeQuality; fill-rule:evenodd; clip-rule:evenodd"
viewBox="0 0 9464 1987"
 xmlns:xlink="http://www.w3.org/1999/xlink">
 <defs>
  <style type="text/css">
   <![CDATA[
    .str7 {stroke:#C35959;stroke-width:6.77747}
    .str6 {stroke:#898989;stroke-width:4.51831}
    .str2 {stroke:#978D2E;stroke-width:4.51831}
    .str1 {stroke:#A19841;stroke-width:4.51831}
    .str4 {stroke:#A79E51;stroke-width:4.51831}
    .str0 {stroke:#9C944B;stroke-width:4.51831}
    .str3 {stroke:#968E44;stroke-width:4.51831}
    .str5 {stroke:#C5C6C6;stroke-width:1.72148}
    .fil4 {fill:none}
    .fil3 {fill:#EBECEC}
    .fil8 {fill:#9D9E9E}
    .fil9 {fill:#434242}
    .fil1 {fill:#FFF8BC}
    .fil2 {fill:#F5B0B0}
    .fil0 {fill:#E5F4FB}
    .fil6 {fill:#D3CACA}
    .fil7 {fill:#2B2A29;fill-rule:nonzero}
    .fil5 {fill:#C35959;fill-rule:nonzero}
   ]]>
  </style>
   <mask id="id0">
  <linearGradient id="id1" gradientUnits="userSpaceOnUse" x1="-13707.9" y1="1495.47" x2="9437.95" y2="434.261">
   <stop offset="0" style="stop-opacity:0; stop-color:white"/>
   <stop offset="1" style="stop-opacity:1; stop-color:white"/>
  </linearGradient>
    <rect style="fill:url(#id1)" x="-2" y="-2" width="9468" height="1992"/>
   </mask>
 </defs>
 <g id="Слой_x0020_1">
  <metadata id="CorelCorpID_0Corel-Layer"/>
  <polygon class="fil0" style="mask:url(#id0)" points="0,0 9464,0 9464,1987 0,1987 "/>
  <ellipse class="fil1 str0" cx="4851" cy="1226" rx="271" ry="88"/>
  <ellipse class="fil1 str1" cx="4851" cy="1138" rx="271" ry="88"/>
  <ellipse class="fil1 str2" cx="4851" cy="1049" rx="271" ry="88"/>
  <ellipse class="fil1 str3" cx="4851" cy="961" rx="271" ry="88"/>
  <ellipse class="fil1 str4" cx="4851" cy="873" rx="271" ry="88"/>
  <rect class="fil2 str5" x="2689" y="702" width="1069" height="676" rx="15" ry="15"/>
  <path class="fil3" d="M2689 742l1068 0 0 -25c0,-8 -7,-15 -14,-15l-1039 0c-8,0 -15,7 -15,15l0 25z"/>
  <line class="fil4 str6" x1="4293" y1="887" x2="4348" y2= "948" />
  <line class="fil4 str6" x1="4348" y1="948" x2="4293" y2= "1008" />
  <line class="fil4 str6" x1="4348" y1="948" x2="4033" y2= "948" />
  <line class="fil4 str6" x1="4087" y1="1104" x2="4033" y2= "1165" />
  <line class="fil4 str6" x1="4033" y1="1165" x2="4087" y2= "1226" />
  <line class="fil4 str6" x1="4033" y1="1165" x2="4348" y2= "1165" />
  <path class="fil5" d="M3184 1116l-78 0 0 -8 43 -47c7,-8 12,-14 14,-19 3,-6 5,-11 5,-15 0,-8 -3,-14 -7,-18 -5,-5 -11,-7 -19,-7 -9,0 -16,2 -21,8 -5,5 -8,12 -8,20l-10 0c0,-7 2,-13 5,-19 3,-5 8,-10 14,-13 5,-3 12,-5 20,-5 11,0 20,3 26,9 7,6 10,14 10,24 0,5 -2,12 -6,18 -3,7 -10,15 -19,25l-34 38 65 0 0 9z"/>
  <polygon id="1" class="fil5" points="3280,1001 3227,1116 3216,1116 3269,1004 3198,1004 3198,995 3280,995 "/>
  <ellipse class="fil4 str7" cx="3339" cy="987" rx="12" ry="11"/>
  <line class="fil4 str6" x1="5647" y1="878" x2="5701" y2= "939" />
  <line class="fil4 str6" x1="5701" y1="939" x2="5647" y2= "1000" />
  <line class="fil4 str6" x1="5701" y1="939" x2="5387" y2= "939" />
  <line class="fil4 str6" x1="5441" y1="1095" x2="5387" y2= "1156" />
  <line class="fil4 str6" x1="5387" y1="1156" x2="5441" y2= "1217" />
  <line class="fil4 str6" x1="5387" y1="1156" x2="5701" y2= "1156" />
  <rect class="fil6 str5" x="6194" y="706" width="456" height="748" rx="14" ry="18"/>
  <polygon class="fil7" points="4710,416 4674,416 4674,449 4671,449 4671,381 4715,381 4715,384 4674,384 4674,413 4710,413 "/>
  <path id="1" class="fil7" d="M4730 449l-3 0 0 -50 3 0 0 50zm-4 -66c0,-1 0,-1 1,-2 0,0 1,0 2,0 0,0 1,0 1,0 1,1 1,1 1,2 0,1 0,2 -1,2 0,0 -1,1 -1,1 -1,0 -2,-1 -2,-1 -1,0 -1,-1 -1,-2z"/>
  <path id="2" class="fil7" d="M4770 401l-3 -1c-5,0 -9,2 -12,5 -3,2 -4,6 -5,11l0 33 -3 0 0 -50 3 0 0 10c1,-3 3,-6 6,-8 3,-2 6,-3 11,-3 1,0 2,0 3,1l0 2z"/>
  <path id="3" class="fil7" d="M4798 450c-4,0 -8,-1 -12,-3 -3,-2 -6,-5 -8,-9 -2,-4 -3,-8 -3,-13l0 -2c0,-4 1,-9 3,-13 2,-4 5,-7 8,-9 3,-2 7,-3 11,-3 6,0 11,2 14,6 4,4 6,9 6,16l0 2 -39 0 0 3c0,4 1,8 2,12 2,3 5,6 8,8 3,2 6,3 10,3 4,0 7,-1 9,-2 2,-1 5,-3 7,-5l1 1c-4,6 -9,8 -17,8zm-1 -50c-5,0 -9,2 -13,6 -3,4 -6,8 -6,14l36 0 0 -1c0,-3 0,-6 -2,-9 -1,-3 -4,-5 -6,-7 -3,-2 -6,-3 -9,-3z"/>
  <path id="4" class="fil7" d="M4869 425c0,8 -2,14 -5,18 -4,5 -9,7 -15,7 -4,0 -7,0 -10,-2 -3,-2 -6,-4 -7,-7l0 8 -3 0 0 -71 3 0 0 30c1,-3 4,-6 7,-7 3,-2 6,-3 10,-3 6,0 11,2 15,7 3,4 5,11 5,19l0 1zm-3 -1c0,-8 -1,-13 -4,-17 -3,-4 -7,-7 -13,-7 -4,0 -8,2 -11,4 -3,2 -5,5 -6,9l0 24c1,3 3,6 6,8 3,2 7,3 11,3 6,0 10,-2 13,-6 3,-4 4,-10 4,-18z"/>
  <path id="5" class="fil7" d="M4917 449c-1,-2 -1,-5 -1,-9 -2,3 -5,6 -8,8 -4,2 -8,2 -12,2 -5,0 -9,-1 -12,-3 -3,-3 -5,-6 -5,-10 0,-5 3,-9 7,-11 4,-3 10,-5 17,-5l13 0 0 -7c0,-4 -1,-8 -4,-10 -3,-2 -7,-4 -12,-4 -5,0 -9,2 -12,4 -3,2 -5,5 -5,9l-2 0c0,-4 2,-8 5,-11 4,-3 9,-4 14,-4 6,0 10,1 14,4 3,3 5,7 5,12l0 24c0,5 0,9 1,11l0 0 -3 0zm-21 -1c4,0 9,-1 12,-3 4,-2 6,-5 8,-9l0 -12 -12 0c-7,0 -13,1 -17,4 -3,2 -5,5 -5,9 0,3 1,6 4,8 2,2 6,3 10,3z"/>
  <path id="6" class="fil7" d="M4968 437c0,-6 -6,-10 -16,-12 -7,-2 -11,-3 -14,-6 -3,-2 -4,-5 -4,-8 0,-4 2,-7 5,-9 3,-3 7,-4 13,-4 5,0 10,1 13,4 4,2 5,6 5,10l-2 0c0,-3 -2,-6 -5,-8 -3,-2 -7,-4 -11,-4 -5,0 -9,1 -11,3 -3,2 -4,5 -4,8 0,2 0,4 1,5 1,1 3,2 5,3 2,2 6,3 10,3 4,1 8,3 10,4 3,1 5,3 6,5 1,1 1,4 1,6 0,4 -1,7 -5,10 -3,2 -8,3 -13,3 -6,0 -11,-1 -14,-3 -4,-3 -6,-6 -6,-10l3 0c0,3 2,6 5,8 3,2 7,3 12,3 5,0 8,-1 11,-3 3,-2 5,-5 5,-8z"/>
  <path id="7" class="fil7" d="M5004 450c-5,0 -9,-1 -12,-3 -4,-2 -6,-5 -8,-9 -2,-4 -3,-8 -3,-13l0 -2c0,-4 1,-9 3,-13 1,-4 4,-7 8,-9 3,-2 7,-3 11,-3 5,0 10,2 14,6 4,4 5,9 5,16l0 2 -39 0 0 3c0,4 1,8 3,12 2,3 4,6 7,8 4,2 7,3 11,3 3,0 6,-1 9,-2 2,-1 4,-3 6,-5l2 1c-4,6 -10,8 -17,8zm-1 -50c-5,0 -10,2 -13,6 -4,4 -6,8 -7,14l37 0 0 -1c0,-3 -1,-6 -2,-9 -2,-3 -4,-5 -7,-7 -2,-2 -5,-3 -8,-3z"/>
  <path id="8" class="fil7" d="M4651 564l0 -68 19 0c5,0 10,1 15,4 4,2 8,6 10,10 3,5 4,10 4,16l0 8c0,6 -1,11 -4,16 -2,4 -6,8 -10,10 -4,3 -9,4 -15,4l-19 0zm2 -65l0 63 17 0c5,0 9,-1 13,-4 5,-2 8,-5 10,-9 2,-5 3,-9 3,-14l0 -9c0,-5 -1,-10 -3,-14 -2,-4 -5,-7 -9,-10 -4,-2 -9,-3 -14,-3l-17 0z"/>
  <path id="9" class="fil7" d="M4748 564c-1,-2 -1,-5 -1,-9 -2,3 -5,6 -9,8 -3,1 -7,2 -12,2 -5,0 -9,-1 -11,-4 -3,-2 -5,-5 -5,-10 0,-4 2,-8 7,-11 4,-3 10,-4 17,-4l13 0 0 -7c0,-5 -2,-8 -4,-10 -3,-3 -7,-4 -12,-4 -5,0 -9,1 -12,4 -3,2 -5,5 -5,9l-2 0c0,-5 1,-8 5,-11 4,-3 8,-4 14,-4 6,0 10,1 13,4 4,3 5,6 5,11l0 25c0,5 1,9 2,11l0 0 -3 0zm-22 -1c5,0 9,-1 13,-3 3,-3 6,-6 8,-9l0 -12 -12 0c-8,0 -13,1 -17,4 -4,2 -5,5 -5,9 0,3 1,5 4,7 2,3 5,4 9,4z"/>
  <path id="10" class="fil7" d="M4772 500l0 14 12 0 0 2 -12 0 0 36c0,4 1,6 2,8 1,2 3,3 6,3 1,0 3,0 5,-1l1 3c-2,0 -3,0 -6,0 -4,0 -6,-1 -8,-3 -2,-2 -3,-5 -3,-10l0 -36 -9 0 0 -2 9 0 0 -14 3 0z"/>
  <path id="11" class="fil7" d="M4831 564c0,-2 -1,-5 -1,-9 -2,3 -4,6 -8,8 -4,1 -8,2 -12,2 -5,0 -9,-1 -12,-4 -3,-2 -4,-5 -4,-10 0,-4 2,-8 6,-11 5,-3 10,-4 17,-4l13 0 0 -7c0,-5 -1,-8 -4,-10 -3,-3 -6,-4 -12,-4 -4,0 -8,1 -12,4 -3,2 -4,5 -4,9l-3 0c0,-5 2,-8 6,-11 3,-3 8,-4 13,-4 6,0 11,1 14,4 3,3 5,6 5,11l0 25c0,5 0,9 1,11l0 0 -3 0zm-21 -1c5,0 9,-1 12,-3 4,-3 7,-6 8,-9l0 -12 -12 0c-7,0 -13,1 -17,4 -3,2 -5,5 -5,9 0,3 2,5 4,7 3,3 6,4 10,4z"/>
  <path id="12" class="fil7" d="M4890 539c0,8 -2,15 -6,19 -3,5 -8,7 -14,7 -4,0 -7,-1 -10,-2 -3,-2 -6,-4 -8,-7l0 8 -2 0 0 -71 2 0 0 30c2,-3 5,-6 8,-8 3,-1 6,-2 10,-2 6,0 11,2 14,7 4,4 6,10 6,19l0 0zm-3 -1c0,-7 -1,-12 -4,-17 -3,-4 -8,-6 -13,-6 -4,0 -8,1 -11,4 -3,2 -5,5 -7,9l0 23c2,4 4,7 7,9 3,2 7,3 11,3 6,0 10,-2 13,-7 3,-4 4,-10 4,-18z"/>
  <path id="13" class="fil7" d="M4938 564c-1,-2 -1,-5 -1,-9 -2,3 -5,6 -9,8 -3,1 -7,2 -12,2 -5,0 -8,-1 -11,-4 -3,-2 -5,-5 -5,-10 0,-4 2,-8 7,-11 4,-3 10,-4 17,-4l13 0 0 -7c0,-5 -2,-8 -4,-10 -3,-3 -7,-4 -12,-4 -5,0 -9,1 -12,4 -3,2 -5,5 -5,9l-2 0c0,-5 1,-8 5,-11 4,-3 8,-4 14,-4 6,0 10,1 13,4 4,3 5,6 5,11l0 25c0,5 1,9 2,11l0 0 -3 0zm-22 -1c5,0 9,-1 13,-3 3,-3 6,-6 8,-9l0 -12 -12 0c-8,0 -13,1 -17,4 -4,2 -5,5 -5,9 0,3 1,5 4,7 2,3 5,4 9,4z"/>
  <path id="14" class="fil7" d="M4989 552c0,-6 -6,-10 -17,-13 -6,-1 -11,-3 -13,-5 -3,-2 -4,-5 -4,-8 0,-4 1,-7 5,-10 3,-2 7,-3 12,-3 6,0 11,1 14,4 3,2 5,6 5,10l-3 0c0,-3 -1,-6 -4,-8 -3,-3 -7,-4 -12,-4 -4,0 -8,1 -10,3 -3,2 -5,4 -5,7 0,3 1,4 2,6 1,1 3,2 5,3 2,1 5,2 10,3 4,1 7,2 10,4 2,1 4,3 5,4 2,2 2,4 2,7 0,4 -2,7 -5,10 -3,2 -8,3 -13,3 -6,0 -11,-1 -14,-4 -4,-2 -6,-6 -6,-10l3 0c0,4 2,7 5,9 3,2 7,3 12,3 4,0 8,-1 11,-3 3,-3 5,-5 5,-8z"/>
  <path id="15" class="fil7" d="M5024 565c-4,0 -8,-1 -11,-3 -4,-2 -7,-5 -9,-9 -2,-4 -3,-8 -3,-13l0 -2c0,-5 1,-9 3,-13 2,-4 5,-7 8,-9 4,-2 7,-3 11,-3 6,0 11,2 15,6 3,4 5,9 5,16l0 2 -39 0 0 3c0,4 1,8 3,11 1,4 4,7 7,9 3,2 7,3 10,3 4,0 7,-1 9,-2 3,-1 5,-3 7,-5l2 1c-4,5 -10,8 -18,8zm-1 -50c-5,0 -9,2 -13,6 -3,3 -5,8 -6,14l37 0 0 -1c0,-3 -1,-6 -3,-9 -1,-3 -3,-6 -6,-7 -2,-2 -5,-3 -9,-3z"/>
  <polygon class="fil7" points="6262,462 6227,462 6227,494 6267,494 6267,496 6224,496 6224,428 6267,428 6267,431 6227,431 6227,460 6262,460 "/>
  <path id="1" class="fil7" d="M6322 480c0,-3 0,-6 -2,-8 -1,-2 -3,-3 -6,-5 -3,-1 -8,-3 -14,-5 -6,-1 -11,-3 -14,-5 -3,-1 -5,-3 -6,-5 -2,-2 -2,-5 -2,-8 0,-5 2,-9 6,-12 4,-3 10,-5 17,-5 4,0 8,1 12,3 4,1 6,4 8,7 2,3 3,6 3,10l-2 0c0,-5 -2,-9 -6,-12 -4,-4 -9,-5 -15,-5 -6,0 -11,1 -15,4 -4,2 -6,6 -6,10 0,4 2,7 5,10 3,2 9,4 17,6 7,2 13,4 16,7 5,3 7,7 7,13 0,3 -1,6 -3,9 -2,2 -5,4 -8,6 -4,1 -8,2 -13,2 -5,0 -9,-1 -14,-2 -4,-2 -7,-4 -9,-7 -2,-3 -3,-7 -3,-11l3 0c0,6 2,10 6,13 5,3 10,5 17,5 6,0 11,-2 15,-5 4,-2 6,-6 6,-10z"/>
  <path id="2" class="fil7" d="M6341 467l0 29 -2 0 0 -68 22 0c7,0 13,2 17,5 4,4 6,9 6,15 0,6 -2,11 -6,14 -4,4 -10,5 -17,5l-20 0zm0 -2l20 0c6,0 11,-2 15,-5 3,-3 5,-7 5,-12 0,-5 -2,-10 -5,-13 -4,-3 -9,-4 -15,-4l-20 0 0 34z"/>
  <path id="3" class="fil7" d="M6436 445c0,4 -1,8 -3,10 -3,3 -6,5 -10,6 5,1 8,4 11,7 3,3 4,6 4,10 0,6 -2,11 -6,14 -4,3 -9,5 -16,5 -7,0 -12,-2 -16,-5 -5,-3 -7,-8 -7,-14 0,-4 2,-7 4,-10 3,-3 7,-6 11,-7 -4,-1 -7,-3 -9,-6 -2,-2 -4,-6 -4,-10 0,-5 2,-10 6,-13 4,-3 9,-5 15,-5 6,0 11,2 15,5 3,4 5,8 5,13zm0 34c0,-5 -2,-9 -6,-12 -4,-3 -8,-4 -14,-4 -6,0 -11,1 -14,4 -4,3 -6,7 -6,12 0,4 2,8 5,11 4,3 9,5 15,5 6,0 11,-2 14,-5 4,-3 6,-7 6,-11zm-2 -34c0,-4 -2,-8 -5,-11 -4,-3 -8,-4 -13,-4 -5,0 -10,1 -13,4 -3,3 -5,6 -5,11 0,5 2,8 5,11 3,3 8,4 13,4 5,0 9,-1 13,-4 3,-3 5,-6 5,-11z"/>
  <path id="4" class="fil7" d="M6492 496l-42 0 0 -2 24 -27c4,-5 7,-9 9,-12 2,-4 3,-7 3,-10 0,-5 -2,-8 -5,-11 -3,-3 -7,-4 -12,-4 -4,0 -7,0 -9,2 -3,1 -5,4 -7,6 -1,3 -2,6 -2,9l-3 0c0,-3 1,-7 3,-10 2,-3 4,-5 7,-7 3,-2 7,-3 11,-3 6,0 11,2 14,5 4,3 6,8 6,13 0,6 -4,12 -10,19l-4 6 -21 24 38 0 0 2z"/>
  <path id="5" class="fil7" d="M6538 427l0 3c-10,0 -18,2 -23,8 -6,6 -9,14 -9,24 2,-3 4,-6 8,-8 4,-2 7,-3 12,-3 6,0 11,2 14,7 4,4 6,9 6,16 0,4 -1,8 -3,12 -1,3 -4,6 -7,8 -3,2 -6,3 -10,3 -4,0 -8,-1 -12,-3 -3,-2 -6,-5 -8,-8 -2,-4 -3,-8 -3,-12l0 -9c0,-12 3,-21 9,-28 6,-7 14,-10 26,-10zm-13 27c-4,0 -8,1 -12,4 -4,2 -6,5 -7,9l0 6c0,7 2,12 5,16 4,4 9,6 15,6 5,0 9,-2 12,-6 4,-4 5,-9 5,-15 0,-6 -1,-11 -4,-15 -4,-3 -8,-5 -14,-5z"/>
  <path id="6" class="fil7" d="M6592 427l0 3c-10,0 -18,2 -23,8 -6,6 -9,14 -9,24 2,-3 5,-6 8,-8 4,-2 8,-3 12,-3 6,0 11,2 15,7 3,4 5,9 5,16 0,4 -1,8 -2,12 -2,3 -4,6 -7,8 -4,2 -7,3 -11,3 -4,0 -8,-1 -11,-3 -4,-2 -7,-5 -9,-8 -2,-4 -3,-8 -3,-12l0 -9c0,-12 3,-21 9,-28 6,-7 15,-10 26,-10zm-13 27c-4,0 -8,1 -12,4 -4,2 -6,5 -7,9l0 6c0,7 2,12 6,16 3,4 8,6 14,6 5,0 9,-2 13,-6 3,-4 5,-9 5,-15 0,-6 -2,-11 -5,-15 -4,-3 -8,-5 -14,-5z"/>
  <polygon class="fil7" points="3034,485 3037,474 3054,421 3057,421 3073,474 3076,485 3079,474 3094,421 3097,421 3078,489 3075,489 3057,432 3055,425 3053,432 3035,489 3032,489 3013,421 3016,421 3031,474 "/>
  <path id="1" class="fil7" d="M3125 490c-4,0 -8,-1 -11,-3 -4,-2 -6,-5 -8,-9 -2,-4 -3,-8 -3,-13l0 -2c0,-5 1,-9 2,-13 2,-4 5,-7 8,-9 4,-2 7,-3 11,-3 6,0 11,2 15,6 4,4 5,9 5,16l0 2 -39 0 0 3c0,4 1,8 3,11 2,4 4,7 7,9 3,2 7,3 10,3 4,0 7,-1 9,-2 3,-1 5,-3 7,-5l2 1c-4,5 -10,8 -18,8zm-1 -50c-5,0 -9,2 -12,6 -4,3 -6,8 -7,14l37 0 0 -1c0,-3 -1,-7 -3,-9 -1,-3 -3,-6 -6,-7 -2,-2 -5,-3 -9,-3z"/>
  <path id="2" class="fil7" d="M3196 464c0,8 -1,15 -5,19 -3,5 -8,7 -14,7 -4,0 -8,-1 -11,-2 -3,-2 -5,-4 -7,-7l0 8 -3 0 0 -72 3 0 0 31c2,-3 4,-6 7,-8 3,-1 7,-2 11,-2 6,0 11,2 14,7 4,4 5,10 5,19l0 0zm-2 -1c0,-7 -2,-13 -5,-17 -3,-4 -7,-6 -12,-6 -5,0 -8,1 -11,3 -3,3 -6,6 -7,10l0 23c1,4 4,7 7,9 3,2 6,3 11,3 5,0 9,-2 12,-7 3,-4 5,-10 5,-18z"/>
  <path id="3" class="fil7" d="M3274 464c0,8 -1,15 -5,19 -3,5 -8,7 -14,7 -4,0 -8,-1 -11,-2 -3,-2 -5,-4 -7,-7l0 28 -3 0 0 -70 3 0 0 9c2,-4 4,-6 7,-8 3,-1 7,-2 11,-2 6,0 11,2 14,7 4,4 5,10 5,19l0 0zm-2 -1c0,-7 -2,-13 -5,-17 -3,-4 -7,-6 -12,-6 -5,0 -8,1 -11,4 -4,2 -6,5 -7,9l0 24c1,3 3,6 7,8 3,2 6,3 11,3 5,0 9,-2 12,-7 3,-4 5,-10 5,-18z"/>
  <path id="4" class="fil7" d="M3322 489c0,-2 -1,-5 -1,-9 -2,3 -4,6 -8,7 -4,2 -8,3 -12,3 -5,0 -9,-1 -12,-4 -3,-2 -4,-6 -4,-10 0,-4 2,-8 6,-11 5,-3 10,-4 18,-4l12 0 0 -7c0,-5 -1,-8 -4,-10 -2,-3 -6,-4 -12,-4 -4,0 -8,1 -11,4 -4,2 -5,5 -5,9l-3 -1c0,-4 2,-7 6,-10 3,-3 8,-4 13,-4 6,0 11,1 14,4 3,3 5,6 5,11l0 24c0,6 0,10 1,12l0 0 -3 0zm-21 -1c5,0 9,-1 12,-4 4,-2 7,-5 8,-8l0 -13 -12 0c-7,0 -13,2 -17,5 -3,2 -5,5 -5,9 0,3 2,5 4,7 3,3 6,4 10,4z"/>
  <path id="5" class="fil7" d="M3338 463c0,-8 2,-14 6,-18 3,-5 8,-7 14,-7 4,0 7,1 10,2 4,2 6,5 8,8l0 -9 2 0 0 49c0,7 -1,12 -5,16 -3,4 -8,6 -14,6 -4,0 -7,-1 -10,-3 -3,-1 -5,-3 -7,-6l1 -2c2,3 5,5 7,6 2,1 5,2 9,2 5,0 9,-2 12,-5 3,-3 5,-7 5,-13l0 -8c-2,3 -4,5 -8,7 -3,1 -6,2 -10,2 -6,0 -11,-2 -14,-7 -4,-4 -6,-11 -6,-19l0 -1zm3 1c0,8 2,13 4,17 3,5 8,7 13,7 4,0 8,-1 11,-3 3,-2 5,-5 7,-9l0 -23c-3,-8 -9,-13 -18,-13 -5,0 -10,2 -12,6 -3,4 -5,10 -5,18z"/>
  <path id="6" class="fil7" d="M3414 490c-4,0 -8,-1 -12,-3 -3,-2 -6,-5 -8,-9 -2,-4 -3,-8 -3,-13l0 -2c0,-5 1,-9 3,-13 2,-4 5,-7 8,-9 3,-2 7,-3 11,-3 6,0 11,2 14,6 4,4 6,9 6,16l0 2 -39 0 0 3c0,4 1,8 2,11 2,4 5,7 8,9 3,2 6,3 10,3 3,0 6,-1 9,-2 2,-1 5,-3 6,-5l2 1c-4,5 -9,8 -17,8zm-1 -50c-5,0 -9,2 -13,6 -4,3 -6,8 -6,14l36 0 0 -1c0,-3 -1,-7 -2,-9 -2,-3 -4,-6 -6,-7 -3,-2 -6,-3 -9,-3z"/>
  <rect class="fil8" x="6312" y="798" width="218" height="225"/>
  <rect class="fil8" x="6312" y="1315" width="148.232" height="41.8396"/>
  <rect class="fil8" transform="matrix(9.02178E-15 0.285705 -0.141123 3.1348E-15 6520.95 1097.18)" width="218" height="296"/>
  <rect class="fil8" transform="matrix(9.02178E-15 0.109896 -0.141123 1.2058E-15 6353.57 1147.39)" width="218" height="296"/>
  <rect class="fil9" x="6312" y="706" width="217.577" height="92.3881"/>
 </g>
</svg>
